<?xml version="1.0" encoding="UTF-8"?>

<!DOCTYPE svg PUBLIC "-//W3C//DTD SVG 1.1//EN" "http://www.w3.org/Graphics/SVG/1.1/DTD/svg11.dtd">

<svg version="1.1" xmlns="http://www.w3.org/2000/svg" xmlns:xlink="http://www.w3.org/1999/xlink" viewBox="0 0 500 100" xml:space="preserve" width="1500" height="300">
    <g transform="translate(0,0)">
        <defs>
            <linearGradient id="grad1" x1="0%" y1="0%" x2="100%" y2="100%">
                <stop offset="0%" style="stop-color:#444;stop-opacity:1" />
                <stop offset="100%" style="stop-color:black;stop-opacity:1" />
            </linearGradient>
            <linearGradient id="grad2" x1="0%" y1="0%" x2="100%" y2="0%">
                <stop offset="0%" style="stop-color:#444;stop-opacity:1" />
                <stop offset="100%" style="stop-color:black;stop-opacity:1" />
            </linearGradient>
        </defs>

        <path d="M 0,45 L 225,45 L 250,70 L 275,45 L 500,45 L 500,50 L463,60 L 280,60 L 250,90 L 220,60 L 37,60 L 0,50 Z" fill="url(#grad2)" style="stroke:transparent;"/>
        <path d="M 225,35 L 130,35 L 125,40 L 225,40 L 250,15 L 275,40 L 375,40 L 370,35 L 275,35 L 250,15 Z" fill="url(#grad2)"/>
        <path d="M 150,65 L 215,65 L 235,85 Z" stroke="url(#grad1)" stroke-width="3" fill="white"/>
        <path d="M 350,65 L 285,65 L 265,85 Z" stroke="url(#grad1)" stroke-width="3" fill="white"/>

        <path d="M 250,20.5 L 250,49.5" style="stroke:black;stroke-width:1px;"/>
        <path d="M 235.5,35 L 264.5,35" style="stroke:black;stroke-width:1px;"/>
        <path d="M 250,35 L 250,50 L 235,35 Z" style="fill:#222; stroke:transparent;"/>
        <path d="M 250,35 L 250,20 L 265,35 Z" style="fill:#222; stroke:transparent;"/>
        <path d="M 250,35 L 250,20 L 235,35 Z" style="fill:#444; stroke:transparent;"/>
        <path d="M 250,35 L 250,50 L 265,35 Z" style="fill:#000; stroke:transparent;"/>

        <path d="M 250,75.5 L 250,84.5" style="stroke:#940f0f;stroke-width:1px;"/>
        <path d="M 245.5,80 L 254.5,80" style="stroke:#940f0f;stroke-width:1px;"/>
        <path d="M 250,75 L 250,80 L 245,80 Z" style="fill:#b33131; stroke:transparent;"/>
        <path d="M 250,85 L 250,80 L 245,80 Z" style="fill:#940f0f; stroke:transparent;"/>
        <path d="M 250,75 L 250,80 L 255,80 Z" style="fill:#940f0f; stroke:transparent;"/>
        <path d="M 250,85 L 250,80 L 255,80 Z" style="fill:#740404; stroke:transparent;"/>

        <g transform="translate(-27.5,-27.5)">
            <path d="M 250,75.5 L 250,84.5" style="stroke:#940f0f;stroke-width:1px;"/>
            <path d="M 245.5,80 L 254.5,80" style="stroke:#940f0f;stroke-width:1px;"/>
            <path d="M 250,75 L 250,80 L 245,80 Z" style="fill:#b33131; stroke:transparent;"/>
            <path d="M 250,85 L 250,80 L 245,80 Z" style="fill:#940f0f; stroke:transparent;"/>
            <path d="M 250,75 L 250,80 L 255,80 Z" style="fill:#940f0f; stroke:transparent;"/>
            <path d="M 250,85 L 250,80 L 255,80 Z" style="fill:#740404; stroke:transparent;"/>
        </g>
        <g transform="translate(27.5,-27.5)">
            <path d="M 250,75.5 L 250,84.5" style="stroke:#940f0f;stroke-width:1px;"/>
            <path d="M 245.5,80 L 254.5,80" style="stroke:#940f0f;stroke-width:1px;"/>
            <path d="M 250,75 L 250,80 L 245,80 Z" style="fill:#b33131; stroke:transparent;"/>
            <path d="M 250,85 L 250,80 L 245,80 Z" style="fill:#940f0f; stroke:transparent;"/>
            <path d="M 250,75 L 250,80 L 255,80 Z" style="fill:#940f0f; stroke:transparent;"/>
            <path d="M 250,85 L 250,80 L 255,80 Z" style="fill:#740404; stroke:transparent;"/>
        </g>
    </g>
</svg>